PathFileType	4	(X/Y/Z)	C:\Users\italobelli\Desktop\GitHub\PTbot_officialCBL\Personal_Results\ABD01_noisy2.trc
DataRate	CameraRate	NumFrames	NumMarkers	Units	OrigDataRate	OrigDataStartFrame	OrigNumFrames
104.666667	104.666667	25	9	m	104.666667	138	1100
Frame#	Time		gu		centelbow		EpL		centpxt8		centijc7		ij		ts		aa		ai
			X1	Y1	Z1	X2	Y2	Z2	X3	Y3	Z3	X4	Y4	Z4	X5	Y5	Z5	X6	Y6	Z6	X7	Y7	Z7	X8	Y8	Z8	X9	Y9	Z9

138	1.3089	-0.073274	-0.020472	0.16534	-0.098152	-0.25771	0.1906	-0.077829	-0.25323	0.21524	-0.046816	-0.15316	-0.008669	-0.046816	0.031938	-0.008669	0	0	0	-0.13594	0.030868	0.061268	-0.09744	0.01815	0.17343	-0.16002	-0.080053	0.062498
139	1.3185	-0.073276	-0.020469	0.16533	-0.098179	-0.25773	0.19059	-0.077856	-0.25324	0.21523	-0.046816	-0.15316	-0.008669	-0.046816	0.031938	-0.008669	0	0	0	-0.13593	0.030866	0.061259	-0.097438	0.018147	0.17342	-0.16001	-0.080056	0.062487
140	1.328	-0.073278	-0.020467	0.16533	-0.098206	-0.25775	0.19059	-0.077884	-0.25327	0.21523	-0.046816	-0.15316	-0.008669	-0.046816	0.031938	-0.008669	0	0	0	-0.13593	0.030864	0.061249	-0.097436	0.018144	0.17341	-0.16001	-0.080059	0.062475
141	1.3376	-0.07328	-0.020466	0.16533	-0.098234	-0.25777	0.19059	-0.077913	-0.25329	0.21522	-0.046816	-0.15316	-0.008669	-0.046816	0.031938	-0.008669	0	0	0	-0.13593	0.030862	0.06124	-0.097436	0.01814	0.1734	-0.16	-0.080062	0.062463
142	1.3471	-0.073283	-0.020465	0.16533	-0.098262	-0.25779	0.19058	-0.077942	-0.25331	0.21522	-0.046816	-0.15316	-0.008669	-0.046816	0.031938	-0.008669	0	0	0	-0.13593	0.03086	0.06123	-0.097435	0.018136	0.17339	-0.16	-0.080065	0.06245
143	1.3567	-0.073286	-0.020464	0.16533	-0.098291	-0.25781	0.19058	-0.077972	-0.25333	0.21522	-0.046816	-0.15316	-0.008669	-0.046816	0.031938	-0.008669	0	0	0	-0.13593	0.030858	0.06122	-0.097436	0.018132	0.17338	-0.15999	-0.080067	0.062436
144	1.3662	-0.07329	-0.020464	0.16532	-0.09832	-0.25783	0.19059	-0.078003	-0.25335	0.21522	-0.046816	-0.15316	-0.008669	-0.046816	0.031938	-0.008669	0	0	0	-0.13593	0.030856	0.06121	-0.097437	0.018127	0.17337	-0.15999	-0.08007	0.062423
145	1.3758	-0.073294	-0.020465	0.16532	-0.09835	-0.25785	0.19059	-0.078033	-0.25338	0.21523	-0.046816	-0.15316	-0.008669	-0.046816	0.031938	-0.008669	0	0	0	-0.13593	0.030854	0.0612	-0.097438	0.018123	0.17336	-0.15999	-0.080073	0.062408
146	1.3854	-0.073299	-0.020465	0.16532	-0.09838	-0.25788	0.1906	-0.078064	-0.2534	0.21523	-0.046816	-0.15316	-0.008669	-0.046816	0.031938	-0.008669	0	0	0	-0.13593	0.030852	0.061189	-0.097441	0.018118	0.17335	-0.15999	-0.080075	0.062393
147	1.3949	-0.073304	-0.020467	0.16531	-0.09841	-0.2579	0.1906	-0.078096	-0.25342	0.21524	-0.046816	-0.15316	-0.008669	-0.046816	0.031938	-0.008669	0	0	0	-0.13593	0.03085	0.061179	-0.097444	0.018113	0.17334	-0.15998	-0.080078	0.062378
148	1.4045	-0.073309	-0.020468	0.16531	-0.098441	-0.25792	0.19062	-0.078127	-0.25345	0.21525	-0.046816	-0.15316	-0.008669	-0.046816	0.031938	-0.008669	0	0	0	-0.13593	0.030848	0.061168	-0.097448	0.018107	0.17333	-0.15998	-0.08008	0.062363
149	1.414	-0.073316	-0.020471	0.1653	-0.098471	-0.25795	0.19063	-0.078159	-0.25348	0.21527	-0.046816	-0.15316	-0.008669	-0.046816	0.031938	-0.008669	0	0	0	-0.13593	0.030846	0.061157	-0.097452	0.018102	0.17332	-0.15998	-0.080083	0.062347
150	1.4236	-0.073322	-0.020473	0.1653	-0.098502	-0.25797	0.19064	-0.078191	-0.2535	0.21528	-0.046816	-0.15316	-0.008669	-0.046816	0.031938	-0.008669	0	0	0	-0.13593	0.030845	0.061146	-0.097457	0.018096	0.17331	-0.15998	-0.080085	0.06233
151	1.4331	-0.073329	-0.020477	0.16529	-0.098532	-0.258	0.19066	-0.078222	-0.25353	0.2153	-0.046816	-0.15316	-0.008669	-0.046816	0.031938	-0.008669	0	0	0	-0.13593	0.030843	0.061135	-0.097463	0.018089	0.1733	-0.15998	-0.080087	0.062313
152	1.4427	-0.073337	-0.02048	0.16528	-0.098563	-0.25803	0.19069	-0.078254	-0.25356	0.21532	-0.046816	-0.15316	-0.008669	-0.046816	0.031938	-0.008669	0	0	0	-0.13594	0.030841	0.061124	-0.09747	0.018083	0.17329	-0.15999	-0.080089	0.062296
153	1.4522	-0.073345	-0.020485	0.16528	-0.098593	-0.25805	0.19071	-0.078286	-0.25359	0.21535	-0.046816	-0.15316	-0.008669	-0.046816	0.031938	-0.008669	0	0	0	-0.13594	0.03084	0.061112	-0.097478	0.018076	0.17328	-0.15999	-0.080091	0.062278
154	1.4618	-0.073354	-0.020489	0.16527	-0.098624	-0.25808	0.19074	-0.078318	-0.25362	0.21538	-0.046816	-0.15316	-0.008669	-0.046816	0.031938	-0.008669	0	0	0	-0.13594	0.030838	0.061101	-0.097486	0.018069	0.17327	-0.15999	-0.080092	0.06226
155	1.4713	-0.073363	-0.020495	0.16526	-0.098654	-0.25811	0.19077	-0.078349	-0.25365	0.21541	-0.046816	-0.15316	-0.008669	-0.046816	0.031938	-0.008669	0	0	0	-0.13595	0.030837	0.06109	-0.097495	0.018062	0.17326	-0.15999	-0.080094	0.062242
156	1.4809	-0.073373	-0.020501	0.16526	-0.098683	-0.25814	0.19081	-0.07838	-0.25368	0.21545	-0.046816	-0.15316	-0.008669	-0.046816	0.031938	-0.008669	0	0	0	-0.13595	0.030835	0.061078	-0.097505	0.018055	0.17325	-0.16	-0.080096	0.062223
157	1.4904	-0.073383	-0.020507	0.16525	-0.098713	-0.25817	0.19085	-0.078411	-0.25371	0.21549	-0.046816	-0.15316	-0.008669	-0.046816	0.031938	-0.008669	0	0	0	-0.13596	0.030834	0.061067	-0.097516	0.018047	0.17324	-0.16	-0.080097	0.062204
158	1.5	-0.073394	-0.020514	0.16524	-0.098742	-0.2582	0.19089	-0.078441	-0.25374	0.21553	-0.046816	-0.15316	-0.008669	-0.046816	0.031938	-0.008669	0	0	0	-0.13596	0.030833	0.061055	-0.097527	0.018039	0.17323	-0.16001	-0.080098	0.062185
159	1.5096	-0.073405	-0.020522	0.16523	-0.098771	-0.25823	0.19094	-0.078471	-0.25378	0.21558	-0.046816	-0.15316	-0.008669	-0.046816	0.031938	-0.008669	0	0	0	-0.13597	0.030832	0.061043	-0.09754	0.018031	0.17322	-0.16002	-0.080099	0.062165
160	1.5191	-0.073417	-0.020533	0.16522	-0.098801	-0.25828	0.19099	-0.078502	-0.25382	0.21563	-0.046816	-0.15316	-0.008669	-0.046816	0.031938	-0.008669	0	0	0	-0.13597	0.030831	0.06103	-0.097554	0.018022	0.17321	-0.16002	-0.0801	0.062143
161	1.5287	-0.073429	-0.020546	0.16521	-0.098831	-0.25832	0.19104	-0.078534	-0.25387	0.21568	-0.046816	-0.15316	-0.008669	-0.046816	0.031938	-0.008669	0	0	0	-0.13598	0.03083	0.061017	-0.097569	0.018012	0.1732	-0.16003	-0.080101	0.06212
162	1.5382	-0.073441	-0.020561	0.1652	-0.098862	-0.25838	0.1911	-0.078566	-0.25392	0.21574	-0.046816	-0.15316	-0.008669	-0.046816	0.031938	-0.008669	0	0	0	-0.13599	0.030829	0.061003	-0.097586	0.018002	0.17319	-0.16004	-0.080101	0.062096
